<svg xmlns="http://www.w3.org/2000/svg" xmlns:xlink="http://www.w3.org/1999/xlink" width="204.126" height="153.879" viewBox="0 0 204.126 153.879">
  <defs>
    <linearGradient id="linear-gradient" x1="-2.837" y1="-1.257" x2="-2.822" y2="-7.634" gradientUnits="objectBoundingBox">
      <stop offset="0.01"/>
      <stop offset="0.08" stop-opacity="0.69"/>
      <stop offset="0.21" stop-opacity="0.322"/>
      <stop offset="1" stop-opacity="0"/>
    </linearGradient>
    <linearGradient id="linear-gradient-2" x1="-57.876" y1="8.258" x2="-54.116" y2="8.137" xlink:href="#linear-gradient"/>
    <linearGradient id="linear-gradient-3" x1="-48.13" y1="-18.803" x2="-46.615" y2="-19.817" xlink:href="#linear-gradient"/>
    <linearGradient id="linear-gradient-4" x1="-49.578" y1="-20.542" x2="-48.063" y2="-21.553" xlink:href="#linear-gradient"/>
    <linearGradient id="linear-gradient-5" x1="-49.77" y1="0.109" x2="-48.77" y2="0.109" xlink:href="#linear-gradient"/>
    <linearGradient id="linear-gradient-6" x1="-33.472" y1="0.428" x2="-34.129" y2="-1.156" xlink:href="#linear-gradient"/>
    <linearGradient id="linear-gradient-7" x1="-4.08" y1="7.214" x2="-4.056" y2="-6.632" xlink:href="#linear-gradient"/>
    <linearGradient id="linear-gradient-8" x1="-91.186" y1="1.391" x2="-88.269" y2="1.786" xlink:href="#linear-gradient"/>
  </defs>
  <g id="Lunch_break_Monochromatic" data-name="Lunch break_Monochromatic" transform="translate(0 0.001)">
    <path id="パス_109" data-name="パス 109" d="M26.792,164.843c8.11,10.521,19.709,17.769,32.291,21.728,14.977,4.705,31.192,4.837,46.565,1.787,8.041-1.586,15.992-4.039,24.187-4.229,6.212-.159,12.366.973,18.5,1.787,20.835,2.781,58.461,4.414,63.287-22.5,1.216-6.756-.079-13.217-1.9-19.725a23.261,23.261,0,0,0-3.754-7.518c-1.264-1.8-2.643-3.563-4.013-5.773-3.172-3.172-2.834-12.117-2.194-16.267.841-5.466,4.885-10.214,7.745-14.835,2.115-3.442,4.3-6.978,5.107-10.949,1.1-5.451-.492-11.049-2.072-16.389-1.718-5.815-3.584-11.832-7.777-16.183-3.172-3.288-7.4-5.318-11.525-7.275-11.187-5.287-22.865-10.774-35.379-11.784s-22.648,2.115-33.058,9.046c-7.518,4.975-14.845,10.637-23.515,13.085-6.344,1.792-13.053,1.739-19.614,2.442A86.417,86.417,0,0,0,23.737,90.818a51.536,51.536,0,0,0-6.2,8.76,64.572,64.572,0,0,0-3.891,9.1c-2.691,7.46-5.1,15.226-4.758,23.151C8.955,133.7,24.715,162.147,26.792,164.843Z" transform="translate(-8.86 -36.54)" fill="none" opacity="0.18" style="isolation: isolate"/>
    <path id="パス_110" data-name="パス 110" d="M160.977,203.609a9.47,9.47,0,0,0-.962-.465,3.172,3.172,0,0,0-1.258-.042l-5.07.529a1.586,1.586,0,0,0-.862.264c-.338.275-.386.756-.529,1.174-.624,1.893-3.05,2.289-4.885,3.066a1.914,1.914,0,0,0-.83.566,1.692,1.692,0,0,0,.4,2.051c1.179,1.248,3.04,1.491,4.758,1.618q3.7.27,7.4.248c1.9,0,4.758.391,6.529-.428,3.172-1.491,1.464-4.843-.872-5.884C166.168,203.957,162.034,204.053,160.977,203.609Z" transform="translate(-73.672 -115.025)" fill="#4c506d"/>
    <path id="パス_111" data-name="パス 111" d="M205.491,255.359l-2.442,2.876,13.745,4.145a1.93,1.93,0,0,1,1.205.74c.529.93-.693,1.85-1.686,2.2-16.817,6.022-35.3.809-53.153.381-9.939-.243-19.841,1.057-29.759,1.782a79.372,79.372,0,0,1-14.613.085,107.6,107.6,0,0,1-10.907-2.035,178.913,178.913,0,0,0-34.1-4.451,21.647,21.647,0,0,1-6.429-.724,2.866,2.866,0,0,1-1.433-.872,2.293,2.293,0,0,1,.529-2.961,6.346,6.346,0,0,1,3.029-1.227c27.681-5.63,56.161,5.012,84.366,3.389,7.978-.46,16.262-.085,24.155-1.417,4.229-.719,8.406-1.866,12.688-2.342C192.549,254.725,204.957,255.983,205.491,255.359Z" transform="translate(-35.592 -138.867)" fill="url(#linear-gradient)"/>
    <path id="パス_112" data-name="パス 112" d="M232.9,122.418a8.638,8.638,0,0,1,1.893,1.174,2.939,2.939,0,0,1,2.257-.978,1.6,1.6,0,0,1,1.486,1.7c-.053.317-.227.6-.27.915-.1.724.5,1.327,1.026,1.824a11.525,11.525,0,0,1,2.189,2.585,4.663,4.663,0,0,1,.613,3.267,2.881,2.881,0,0,0-.164,1.433c.159.529.719.841,1.057,1.29a3.16,3.16,0,0,1,.217,2.7,6.2,6.2,0,0,0-.4,2.749c.122.624.476,1.184.566,1.808.153,1.147-.8,1.755-1.031,2.739a6.632,6.632,0,0,1-1.528,3.331,2.574,2.574,0,0,1-1.116.724,3.547,3.547,0,0,1-1.665-.085,16.294,16.294,0,0,1-3.648-1.094,5.493,5.493,0,0,1-2.712-2.575,8.3,8.3,0,0,1-.529-2.072l-.925-5.815a20.455,20.455,0,0,1-.354-3.5c.037-2.469.967-4.959.391-7.364-.291-1.179-1.248-3.468-.19-4.462a2.569,2.569,0,0,1,2.469-.428Z" transform="translate(-112.888 -76.884)" fill="#2f3554"/>
    <rect id="長方形_95" data-name="長方形 95" width="120.997" height="3.072" transform="translate(48.395 96.562)" fill="#e0e1e1"/>
    <path id="パス_113" data-name="パス 113" d="M179.756,141.185c-.989-.264-2.009-.217-3.035-.5a4.082,4.082,0,0,1-2.067-1.359,2.553,2.553,0,0,1-.4-2.374.661.661,0,0,1,.333-.4.777.777,0,0,1,.465,0,16.288,16.288,0,0,1,1.93.6,2.078,2.078,0,0,0,.693.169.608.608,0,0,0,.566-.359.809.809,0,0,1,.09-.291.333.333,0,0,1,.46-.032,1.057,1.057,0,0,1,.275.439,4.06,4.06,0,0,0,1.644,2.231,6.624,6.624,0,0,0,2.887.989c.745.063,1.5,0,2.242.127a4.557,4.557,0,0,1,2.347,1.163.719.719,0,0,1,.233.328.735.735,0,0,1-.042.412,3.1,3.1,0,0,1-1.205,1.961,2.226,2.226,0,0,1-1.734.122,6.09,6.09,0,0,1-1.586-.841,21.968,21.968,0,0,0-3.473-2.152A4.339,4.339,0,0,0,179.756,141.185Z" transform="translate(-86.752 -83.66)" fill="#fdb9a9"/>
    <path id="パス_114" data-name="パス 114" d="M208.253,243c-2.728-.613-2.194,3.246-2.908,4.679a7.824,7.824,0,0,1-1.681,1.93,3.5,3.5,0,0,0-1.227,2.194.841.841,0,0,0,.1.465.883.883,0,0,0,.529.322,6.254,6.254,0,0,0,4.658-.46,3.637,3.637,0,0,0,1.586-1.48,5.06,5.06,0,0,0,.412-2.2C209.807,246.845,210.521,243.5,208.253,243Z" transform="translate(-100.097 -133.821)" fill="#fdb9a9"/>
    <path id="パス_115" data-name="パス 115" d="M204.176,258.1s-7.745.328-4.467,2.76,8.179-.592,8.66-1.147.09-1.507.09-1.507Z" transform="translate(-98.431 -140.968)" fill="#e0e1e1"/>
    <path id="パス_116" data-name="パス 116" d="M208.279,256.99c-.693.841-4.33,1.972-5.942,1.856s-3.056-.867-2.9-1.908,3-3.463,3.537-3.458.962,1.242,2.035,1.5a2.871,2.871,0,0,0,2.643-.941.724.724,0,0,1,.883-.227A3.436,3.436,0,0,1,208.279,256.99Z" transform="translate(-98.68 -138.79)" fill="#fff"/>
    <path id="パス_117" data-name="パス 117" d="M225.916,245.938c-2.723-.634-2.189,3.225-2.908,4.658a7.544,7.544,0,0,1-1.681,1.935,3.42,3.42,0,0,0-1.221,2.194.772.772,0,0,0,.1.46.888.888,0,0,0,.529.328,6.307,6.307,0,0,0,4.658-.46,3.7,3.7,0,0,0,1.586-1.486,5.133,5.133,0,0,0,.412-2.194C227.449,249.718,228.184,246.392,225.916,245.938Z" transform="translate(-108.424 -135.202)" fill="#fdb9a9"/>
    <path id="パス_118" data-name="パス 118" d="M221.839,260.91s-7.745.328-4.462,2.765,8.179-.6,8.654-1.131.09-1.512.09-1.512Z" transform="translate(-106.758 -142.292)" fill="#e0e1e1"/>
    <path id="パス_119" data-name="パス 119" d="M225.939,259.775c-.693.846-4.33,1.977-5.937,1.861s-3.061-.862-2.9-1.9,3-3.468,3.537-3.463.962,1.248,2.041,1.5a2.871,2.871,0,0,0,2.643-.941.724.724,0,0,1,.883-.227A3.426,3.426,0,0,1,225.939,259.775Z" transform="translate(-107.004 -140.105)" fill="#fff"/>
    <path id="パス_120" data-name="パス 120" d="M217.82,179.48l3.643,38.3,5.244-.645c2.072-9.347,1.586-37.308,1.586-37.308Z" transform="translate(-107.349 -103.912)" fill="#473f47"/>
    <path id="パス_121" data-name="パス 121" d="M215.452,176.045l-3.643,38.318-5.255-.645c-3-24.24-.529-39.328-.529-39.328Z" transform="translate(-101.338 -101.513)" fill="#473f47"/>
    <path id="パス_122" data-name="パス 122" d="M196.65,136.991c0-.185.137-.28.3-.449l1.2-1.227,3.4-3.484,2.813-2.881V137.7c0,.714.137,1.343-.634,1.7a4.514,4.514,0,0,1-.978.254,25.1,25.1,0,0,0-4.2,1.126,1.882,1.882,0,0,1-.634.148.592.592,0,0,1-.529-.307c-.159-.349.18-.714.248-1.057a1.585,1.585,0,0,0-.111-.767,7.461,7.461,0,0,0-.291-.814c-.132-.285-.444-.555-.529-.83A.4.4,0,0,1,196.65,136.991Z" transform="translate(-97.371 -80.096)" fill="#fff"/>
    <path id="パス_123" data-name="パス 123" d="M207.253,138.5c-.063-.7-.248-1.4-.322-2.115a15.918,15.918,0,0,1,.079-4.34,16.659,16.659,0,0,1,1.369-4.425,5.569,5.569,0,0,1,2.929-2.337,10.326,10.326,0,0,1,3.3-1.126,8.422,8.422,0,0,1,2.442.137c2.469.471,5.731,1.745,7.4,3.7,1.269,1.47,1.422,3.563,1.459,5.5q.079,4.013-.164,8.025-.032.582-.079,1.158a42.946,42.946,0,0,1-1.3,8.808,3.434,3.434,0,0,1-1.364,2.257c-1.93,1.126-4.89.529-6.984.217a23.369,23.369,0,0,1-8.078-2.152,2.289,2.289,0,0,1-1.168-1.126,3.044,3.044,0,0,1,.233-1.866c.83-2.733.185-5.615.185-8.406,0-.529.069-1.02.069-1.528C207.274,138.762,207.253,138.63,207.253,138.5Z" transform="translate(-102.106 -77.822)" fill="#fff"/>
    <path id="パス_124" data-name="パス 124" d="M228.1,157.961c-.275-.529.3-1.951.085-2.686a11.18,11.18,0,0,1-.788-3.849,19.476,19.476,0,0,1,.481-3.172l1.776-8.459c.322-1.549,1.026-8.987,3.389-8.163a4.917,4.917,0,0,1,2.77,3.082,12.689,12.689,0,0,1,.492,4.229,98.637,98.637,0,0,1-1.258,11.224c-.185,1.4-.4,6.593-2.252,7.052-.359.1-.719.275-1.057.344-.624.111-2.49.851-3.3.608A.5.5,0,0,1,228.1,157.961Z" transform="translate(-111.859 -81.331)" fill="#020202" opacity="0.1" style="isolation: isolate"/>
    <path id="パス_125" data-name="パス 125" d="M222.84,168.861a5.847,5.847,0,0,0-.6,3.632.328.328,0,0,0,.2.312.28.28,0,0,0,.233-.042c.476-.291.418-1.227.973-1.258a.931.931,0,0,1,.338.079,7.512,7.512,0,0,0,1.5.529,2.041,2.041,0,0,0,1.517-.259,2.411,2.411,0,0,0,.825-1.835,7.931,7.931,0,0,1,.254-2.178,11.585,11.585,0,0,0,.529-2.02,15.628,15.628,0,0,1,1.126-4.467c.529-1.057,1.327-1.924,1.877-2.955.6-1.131,1.121-3.542-.6-3.87a5.868,5.868,0,0,0-1.665-.074,1.39,1.39,0,0,0-.6.169,1.533,1.533,0,0,0-.529.888,60.585,60.585,0,0,0-2.5,9.167C225.377,166.519,223.664,167.185,222.84,168.861Z" transform="translate(-109.397 -92.104)" fill="#fdb9a9"/>
    <path id="パス_126" data-name="パス 126" d="M217.817,111.566a20.215,20.215,0,0,1,.137-2.2c.069-.634.169-1.279.3-1.909a1.274,1.274,0,0,1,.486-.967,6.106,6.106,0,0,1,3.272-.9,2.643,2.643,0,0,1,3.013,2.21,2.506,2.506,0,0,1,.032.4,19.38,19.38,0,0,1-.476,4.811,20.218,20.218,0,0,0-.2,3.748,4.377,4.377,0,0,1-2.02.714,3.172,3.172,0,0,1-.994-.164.73.73,0,0,1-.444-.291.8.8,0,0,1-.037-.418,3.355,3.355,0,0,0,.037-.4h0a12.158,12.158,0,0,0-.042-2.194.227.227,0,0,0-.063-.164.254.254,0,0,0-.153,0h-.206a5.408,5.408,0,0,1-1.094,0,1.792,1.792,0,0,1-1.142-.566A2.4,2.4,0,0,1,217.817,111.566Z" transform="translate(-107.336 -69.072)" fill="#fdb9a9"/>
    <path id="パス_127" data-name="パス 127" d="M217.97,104.592a1.221,1.221,0,0,1-1.7.285l-.048-.037a.333.333,0,0,1-.148-.333c-.275.026-.455-.285-.492-.56a1.628,1.628,0,0,1,.476-1.343,1.586,1.586,0,0,1,1.359-.418,1.491,1.491,0,0,1,.64-1.089,1.517,1.517,0,0,1,1.253-.18,1.221,1.221,0,0,1,.788-.492,3.754,3.754,0,0,1,1.385-.227,1.369,1.369,0,0,1,1.142.714.4.4,0,0,0,.069.122.328.328,0,0,0,.222.053,2.992,2.992,0,0,1,1.586.312,2.342,2.342,0,0,1,1.057,1.459,8.94,8.94,0,0,1,.032,1.988c0,.127.148.2.259.27a2.284,2.284,0,0,1,.677.656,2.03,2.03,0,0,1,.359,1.02,3.014,3.014,0,0,1-1.3,2.273c-.391.322-.809.619-1.19.952a4.988,4.988,0,0,0-.529.529c-.106.132-.211.434-.391.465s-.312-.159-.359-.328a3.283,3.283,0,0,1,.148-2.189,2.453,2.453,0,0,0,.354-1.115c-.037-.391-.566-.7-.825-.471s-.3.793-.613.682a4.1,4.1,0,0,0,.116-.946,2.823,2.823,0,0,0-.222-.925c-.159-.349-.9-1.438-1.369-.983a1.132,1.132,0,0,1-.233.217.423.423,0,0,1-.412-.032,1.406,1.406,0,0,1-.307-.307,1.332,1.332,0,0,1-.92.529.756.756,0,0,1-.867-.55Z" transform="translate(-106.289 -66.544)" fill="#2f3554"/>
    <path id="パス_128" data-name="パス 128" d="M222.84,120.525a12.266,12.266,0,0,0,2.479-.735,2.952,2.952,0,0,1-2.03,3.119h0a12.158,12.158,0,0,0-.042-2.194.227.227,0,0,0-.063-.164.254.254,0,0,0-.153,0h-.19Z" transform="translate(-109.715 -75.778)" fill="#de9f93"/>
    <path id="パス_129" data-name="パス 129" d="M105.536,169.033c1.507.867,2.776-.037,3.172-1.586.164-.693.227-1.412.455-2.115a10.457,10.457,0,0,1,1.38-2.437,6.767,6.767,0,0,0,1.205-2.516,2.643,2.643,0,0,0-.814-2.548.83.83,0,0,0-.6-.211c-.349.032-.529.428-.613.777a4.451,4.451,0,0,1-.164,1.057,2.046,2.046,0,0,1-1.242.941,8.118,8.118,0,0,0-3.257,1.866,4.425,4.425,0,0,0-.936,3.13C104.167,166.5,104.495,168.441,105.536,169.033Z" transform="translate(-53.753 -93.608)" fill="#2f3554"/>
    <path id="パス_130" data-name="パス 130" d="M120.966,180.589l-1.676,6.376c-4.948,1.026-10.573-.941-10.573-.941.27-2.844,0-6.73-.529-7.93-1.4-3.225-3.124-7.5-1.121-9.939,1.618-1.967,4.578-1.776,6.386-1.723a51.851,51.851,0,0,0,5.361-.2C125.682,173.594,120.966,180.589,120.966,180.589Z" transform="translate(-54.718 -97.667)" fill="#4c506d"/>
    <path id="パス_131" data-name="パス 131" d="M122.58,143.034l2.115,6s3.447.058,2.739-3.394-3.093-3.595-3.093-3.595Z" transform="translate(-62.46 -86.266)" fill="#2f3554"/>
    <path id="パス_132" data-name="パス 132" d="M114.935,143.763s5.768-1.623,6.714,2.421a10.907,10.907,0,0,1,.291,2.553,8.114,8.114,0,0,1-.032.878c-.259,2.643-1.586,4.652-3.732,4.473C114.428,153.781,110.426,145.788,114.935,143.763Z" transform="translate(-57.913 -86.926)" fill="#ec9c7d"/>
    <path id="パス_133" data-name="パス 133" d="M117.529,158.2a.37.37,0,0,1-.529,0h0a4.758,4.758,0,0,1,.772,2.115c.291,2.183-.772,2.273-.772,2.273,3.933,2.2,4.515.708,4.515.708a2.31,2.31,0,0,1-.143-2.458c-1.787.492-3.357-1.612-3.7-2.807a.391.391,0,0,1-.143.169Z" transform="translate(-59.83 -93.802)" fill="#d68369"/>
    <path id="パス_134" data-name="パス 134" d="M117.89,142.8a2.39,2.39,0,0,0-.946-.127,10.543,10.543,0,0,0-4.7.809,2.985,2.985,0,0,0-1.824,2.268,4.087,4.087,0,0,0,.291,1.507,4.5,4.5,0,0,1,.317,1.168c0,.307-.122.624-.122.941a3.563,3.563,0,0,0,.608,1.961,6.873,6.873,0,0,0,1.089,1.163l.856.777a.254.254,0,0,0,.137.085.217.217,0,0,0,.127-.042,1.872,1.872,0,0,0,.936-1.8,1.057,1.057,0,0,0-.317-.7,4.044,4.044,0,0,0-.529-.307,1.4,1.4,0,0,1-.666-1.189.576.576,0,0,1,.238-.529.529.529,0,0,1,.576.1c.222.2.2.434.486.492a1.544,1.544,0,0,0,.883-.275c1.909-1.057,2.643-3.843,3.22-5.815C118.281,143.22,118.165,142.918,117.89,142.8Z" transform="translate(-56.728 -86.562)" fill="#2f3554"/>
    <path id="パス_135" data-name="パス 135" d="M111.057,176.094c-1.586-4.61-2.643-6.873-4.261-6.3,0,0-2.115,1.057-.915,5.287a30.449,30.449,0,0,0,4.9,9.194l1.644-3.627S111.892,178.632,111.057,176.094Z" transform="translate(-54.415 -99.305)" fill="#ec9c7d"/>
    <path id="パス_136" data-name="パス 136" d="M146.955,212.787c-.1-.122-.428-.529-.915-1.057a.9.9,0,0,1,.116.127C146.442,212.153,146.706,212.475,146.955,212.787Z" transform="translate(-73.517 -119.112)" fill="#dc9bd5"/>
    <path id="パス_137" data-name="パス 137" d="M110.607,201.13c2.183.127,4.473.28,6.714.6,0,0,8.787,7.4,9.907,9.194,2.6,4.161,5.123,2.976,1.359,9.056q-3.759,6.074-7.534,12.159c-1.279.428-2.643-.7-3.013-2a7.168,7.168,0,0,1,.4-3.991q1.153-3.933,2.268-7.861a2.327,2.327,0,0,0,0-1.8,2.21,2.21,0,0,0-.814-.682c-.893-.529-1.507-1.787-2.5-2.088a16.558,16.558,0,0,1-4.758-2.115,6.709,6.709,0,0,1-2.887-4.192C109.391,205.333,110.374,203.25,110.607,201.13Z" transform="translate(-56.376 -114.116)" fill="#e0e1e1"/>
    <path id="パス_138" data-name="パス 138" d="M124.09,201.773a15.957,15.957,0,0,0,4.758-.6c2.575,1.147,5.355,4,6.778,5.593h0c.492.529.819.941.92,1.057v.026h0l.143.18a30.323,30.323,0,0,1,3.569,7.058l4.959,12.355a2.955,2.955,0,0,1,.3,1.237c-.074,1.528-2.115,1.935-3.643,1.9l-6.587-10.573s1.248-3.775-1.364-9.056c-.93-1.893-9.918-9.194-9.918-9.194Z" transform="translate(-63.129 -114.135)" fill="#e0e1e1"/>
    <path id="パス_139" data-name="パス 139" d="M124.09,201.773a15.957,15.957,0,0,0,4.758-.6c2.575,1.147,5.355,4,6.778,5.593h0c.492.529.819.941.92,1.057v.026h0l.143.18a30.323,30.323,0,0,1,3.569,7.058l4.959,12.355a2.955,2.955,0,0,1,.3,1.237c-.074,1.528-2.115,1.935-3.643,1.9l-6.587-10.573s1.248-3.775-1.364-9.056c-.93-1.893-9.918-9.194-9.918-9.194Z" transform="translate(-63.129 -114.135)" fill="url(#linear-gradient-2)"/>
    <path id="パス_140" data-name="パス 140" d="M127.6,259.036a12.062,12.062,0,0,0-.5-1.1,6.745,6.745,0,0,0-1.057-.835c-.153-.137-1.057-.9-1-1.121a11.63,11.63,0,0,1-.809,2.115,2.252,2.252,0,0,0-.375,1.322,2.014,2.014,0,0,0,.809,1.057c1.406,1.158,3.087,2.257,4.9,2.051a.407.407,0,0,0,.3-.122.333.333,0,0,0,.063-.222c.032-.8-.751-1.343-1.338-1.887A5.075,5.075,0,0,1,127.6,259.036Z" transform="translate(-63.062 -139.969)" fill="#ec9c7d"/>
    <path id="パス_141" data-name="パス 141" d="M162.466,254.867c-.365-.423-.4-.434-.936-.19a6.873,6.873,0,0,0-1.115.64.249.249,0,0,0-.106.116.254.254,0,0,0,0,.153l.529,1.586a1.089,1.089,0,0,0,.344.592,1.057,1.057,0,0,0,.481.148,11.679,11.679,0,0,0,3.976.116c.338-.069.708-.254.708-.582a.576.576,0,0,0-.132-.338,3.587,3.587,0,0,0-1.776-.888,4.642,4.642,0,0,1-1.972-1.353Z" transform="translate(-80.237 -139.279)" fill="#ec9c7d"/>
    <path id="パス_142" data-name="パス 142" d="M162.157,259.186a2.792,2.792,0,0,1,1.057.19,7.844,7.844,0,0,0,1.221.137,1.29,1.29,0,0,0,.994-.264c.243-.243.275-.634.492-.909a1.057,1.057,0,0,1,.825-.37,2.575,2.575,0,0,1,.909.2,4.393,4.393,0,0,1,1.988,1.359.36.36,0,0,1,.1.248.322.322,0,0,1-.069.169,1.961,1.961,0,0,1-1.4.613,24.187,24.187,0,0,1-3.606.333,9.071,9.071,0,0,0-1.776.063.576.576,0,0,1-.328,0,.486.486,0,0,1-.159-.185C162.2,260.412,161.453,259.365,162.157,259.186Z" transform="translate(-80.974 -140.906)" fill="#e0e1e1"/>
    <path id="パス_143" data-name="パス 143" d="M123.749,261.093c.344.111.634.6.883.856a10.194,10.194,0,0,0,1.057.909,1.491,1.491,0,0,0,1.116.375c.391-.079.671-.434,1.057-.555a1.211,1.211,0,0,1,1.015.174,2.94,2.94,0,0,1,.745.745,5.086,5.086,0,0,1,1.026,2.559.434.434,0,0,1-.063.3.391.391,0,0,1-.174.116,2.273,2.273,0,0,1-1.723-.312,26.677,26.677,0,0,1-3.621-1.977,9.687,9.687,0,0,0-1.734-1.057.529.529,0,0,1-.3-.206.444.444,0,0,1-.037-.275C123.03,262.256,122.993,260.786,123.749,261.093Z" transform="translate(-62.651 -142.359)" fill="#e0e1e1"/>
    <path id="パス_144" data-name="パス 144" d="M104.337,169.991c.4-1.057,2.4-3.484,3.754-2.49a4.726,4.726,0,0,1,1.76,2.612c.127.481.174.994.3,1.491.164.613.418,1.195.529,1.813a7.46,7.46,0,0,1,.037,1.972q-1.935-.27-3.859-.566l-1.924-.307c-.359-.058-1.089.09-1.264-.285a1.137,1.137,0,0,1-.037-.677l.153-1.094a11.762,11.762,0,0,1,.529-2.374A.639.639,0,0,1,104.337,169.991Z" transform="translate(-53.511 -98.156)" fill="#4c506d"/>
    <path id="パス_145" data-name="パス 145" d="M251.272,255.621v3.2H239.81s.671-2.458,5.213-3.2l1.486-1.211Z" transform="translate(-117.713 -139.229)" fill="#e0e1e1"/>
    <path id="パス_146" data-name="パス 146" d="M251.272,254.411v3.2H239.81s.671-2.453,5.213-3.2l1.486-1.211Z" transform="translate(-117.713 -138.658)" fill="url(#linear-gradient-3)"/>
    <path id="パス_147" data-name="パス 147" d="M266.972,262.981v3.2H255.51s.671-2.458,5.207-3.2l1.491-1.211Z" transform="translate(-125.113 -142.698)" fill="#e0e1e1"/>
    <path id="パス_148" data-name="パス 148" d="M266.972,261.761v3.2H255.51s.671-2.458,5.207-3.2l1.491-1.211Z" transform="translate(-125.113 -142.123)" fill="url(#linear-gradient-4)"/>
    <path id="パス_149" data-name="パス 149" d="M302.433,176.31a10.955,10.955,0,0,0-.719,2.062c-.153.867-.407,1.718-.571,2.59a29.393,29.393,0,0,0-.434,5.318,2.581,2.581,0,0,1-.529,1.983,2.453,2.453,0,0,1-1.285.529c-.915.185-1.739.529-2.643.7a17.767,17.767,0,0,1-3,.18c-2.955,0-8.459-.328-8.279-4.467.2-4.684.566-9.241,1.221-13.915a32,32,0,0,1,.74-4.874c.407-1.258,1.877-1.274,3.1-1.142h.238a4.419,4.419,0,0,1,.7.09,33.768,33.768,0,0,0,4.906.137c1.84-.053,4.784-.238,6.6,1.5a4.792,4.792,0,0,1,.354.381C304.643,169.6,303.659,173.165,302.433,176.31Z" transform="translate(-138.999 -97.189)" fill="#e0e1e1"/>
    <path id="パス_150" data-name="パス 150" d="M272.638,175.663a19.441,19.441,0,0,0-.243,2.982,1.8,1.8,0,0,0,.217,1,1.7,1.7,0,0,0,1.517.529,6.873,6.873,0,0,0,4.758-1.988,29.708,29.708,0,0,0,3.22-3.785,3.124,3.124,0,0,0,.724-2.294c0-1.131-.042-2.268-.148-3.4,0-.264-1.845-.058-2.03,0a7.371,7.371,0,0,0-1.93.867,14.56,14.56,0,0,1,.206-2.347,1.153,1.153,0,0,0-.079-.666c-.206-.365-.724-.4-1.147-.365a3.4,3.4,0,0,0-2.5.936,3.605,3.605,0,0,0-.529,1.116A44.338,44.338,0,0,0,272.638,175.663Z" transform="translate(-133.069 -97.647)" fill="#e0e1e1"/>
    <path id="パス_151" data-name="パス 151" d="M277.953,177.966a1.586,1.586,0,0,0,.106,1.1c.407.619,1.343.407,2,.106a15.057,15.057,0,0,0,2.522-1.517.687.687,0,0,1,.5-.2.73.73,0,0,1,.333.243,13.048,13.048,0,0,0,4.425,3.172c.571.248,1.327.4,1.739-.048s.09-1.3-.28-1.861l-4.351-6.725a.529.529,0,0,0-.233-.222c-.164-.058-.333.069-.465.185a8.925,8.925,0,0,1-1.977,1.3,1.142,1.142,0,0,1-.841.153c-.407-.137-.529-.634-.6-1.057a11.315,11.315,0,0,1-.058-2.115,1.945,1.945,0,0,0-.058-.872.973.973,0,0,0-1.29-.46h0a.3.3,0,0,0-.09.048c-.529.407-.455,1.94-.529,2.6Z" transform="translate(-135.666 -98.999)" fill="url(#linear-gradient-5)"/>
    <path id="パス_152" data-name="パス 152" d="M296.736,179.418a6.413,6.413,0,0,1-1.56,1.871c-.714.555-2.358,2.728-3.378,2.062a4.1,4.1,0,0,0,1.549.856,13.692,13.692,0,0,1-5.456,1.755,3.732,3.732,0,0,0-1.4.471,1.327,1.327,0,0,0-.64,1.248c.137.856,1.216,1.11,2.088,1.163,2.115.132,4.256.174,6.371.434,1.8.222,3.738.693,4.843,2.115a.777.777,0,0,0,.323.291.5.5,0,0,0,.571-.275,1.586,1.586,0,0,0,.116-.677,19.526,19.526,0,0,1,.809-5.207c.206-.682.227-1.38.428-2.03.243-.814.687-1.586.962-2.374a22.935,22.935,0,0,0,1.11-4.98c.127-1.189.042-2.643-.978-3.251a2.242,2.242,0,0,0-2.437.254,5.165,5.165,0,0,0-1.5,2.072A43.117,43.117,0,0,1,296.736,179.418Z" transform="translate(-139.414 -100.689)" fill="url(#linear-gradient-6)"/>
    <path id="パス_153" data-name="パス 153" d="M307.2,166.912c-1.813-1.734-4.758-1.549-6.6-1.491a34.479,34.479,0,0,1-4.9-.143c-.233-.032-.465-.063-.7-.085.973-.407,2.353-.132,3.394-.1q2.353.079,4.71.291C304.585,165.516,306.23,165.775,307.2,166.912Z" transform="translate(-143.721 -97.074)" fill="#fff"/>
    <path id="パス_154" data-name="パス 154" d="M303.733,156.38a3.32,3.32,0,0,1-4.034,1.993s.767,2.331-.2,3.738c-.18.264,1.026.529,1.094.529a5.017,5.017,0,0,0,1.983-.423,13.365,13.365,0,0,1,3.035-1,2.115,2.115,0,0,1-1.1-1.142,5.169,5.169,0,0,1-.153-3.431.455.455,0,0,1-.529-.053A.381.381,0,0,1,303.733,156.38Z" transform="translate(-145.84 -93.024)" fill="#d68369"/>
    <path id="パス_155" data-name="パス 155" d="M298.7,151.575c-2.263.666-4.108-1.2-4.943-3.954-.09-.3-.164-.613-.233-.936a12.013,12.013,0,0,1-.243-2.786c.122-4.515,6.614-4.06,6.614-4.06C305.154,141.018,302.648,150.417,298.7,151.575Z" transform="translate(-142.915 -85.222)" fill="#ec9c7d"/>
    <path id="パス_156" data-name="パス 156" d="M293.714,137.135a3.479,3.479,0,0,0-2.03,1.417,10.4,10.4,0,0,1-.708,1.131c-.4.492-1,.846-1.216,1.443a4.557,4.557,0,0,0,2.976-.529.819.819,0,0,0,.708.407,2.554,2.554,0,0,0,.846-.159.783.783,0,0,1,.465-.042.93.93,0,0,1,.307.227,2.067,2.067,0,0,0,1.956.4c.407-.122.814-.365,1.195-.243a1.253,1.253,0,0,1,.661,1.147c0,.275-.137.529-.148.825a2.443,2.443,0,0,0,.127.872,2.115,2.115,0,0,1,.529-.529.73.73,0,0,1,.719-.032.762.762,0,0,1,.222.227,1.417,1.417,0,0,1-.227,1.8c.069.28.137.566.2.846a4.484,4.484,0,0,0,.846-1.338,7.929,7.929,0,0,1,.687-1.586,3.908,3.908,0,0,0,.529-.724,5.812,5.812,0,0,1,.217-.576c.264-.471.634-.941.481-1.517s-.814-1.057-.666-1.623c.037-.111.069-.217.1-.328a.846.846,0,0,0-.1-.481,4.483,4.483,0,0,0-3.077-2.342,9.754,9.754,0,0,0-3.97.037c-1.316.227-2.617.555-3.949.656a.3.3,0,0,0-.28.127.222.222,0,0,0,0,.143c.053.285.317.476.529.677s.407.529.248.767" transform="translate(-141.256 -83.253)" fill="#ff681c"/>
    <path id="パス_157" data-name="パス 157" d="M281.044,205.153s-2.749,6.873-4.959,7.6-10.378,3.214-10.378,3.214l-8.76,17.774-4.467-2.749,7.4-21.411L268.8,205S271.079,205.085,281.044,205.153Z" transform="translate(-123.685 -115.94)" fill="#2f3554"/>
    <path id="パス_158" data-name="パス 158" d="M292.233,206.546s.529,6.265-1.7,6.989-10.373,3.22-10.373,3.22l-7.285,19.831-4.758-1.211,6.212-25.017,8.9-4.562S288.4,203.929,292.233,206.546Z" transform="translate(-131.057 -116.011)" fill="#4c506d"/>
    <path id="パス_159" data-name="パス 159" d="M304.9,171.425s-3.875,8.691-7.988,9.865-9.061-11.007-9.061-11.007l3.3-1.242,5.535,5.562s3.431-7.285,4.827-6.952S305.423,169.945,304.9,171.425Z" transform="translate(-140.356 -98.331)" fill="#e0e1e1"/>
    <path id="パス_160" data-name="パス 160" d="M282.749,160.415a1.745,1.745,0,0,1-.4.92,5.666,5.666,0,0,0-.529,1.723,3.7,3.7,0,0,1-.7,1.649,1.422,1.422,0,0,1-1.623.428,1.364,1.364,0,0,1-.666-1.026,3,3,0,0,1,.143-1.258,7.93,7.93,0,0,1,.6-1.528,3.753,3.753,0,0,1,.93-1.221C281.084,159.622,282.675,159.2,282.749,160.415Z" transform="translate(-136.096 -94.553)" fill="#d68369"/>
    <path id="パス_161" data-name="パス 161" d="M288.14,159.179a.841.841,0,0,1,.254.391.73.73,0,0,1-.063.423A4.864,4.864,0,0,1,286.8,161.8l-1.02.862a.873.873,0,0,1-.243.169.846.846,0,0,1-.486,0l-2.062-.285a1.644,1.644,0,0,1-.751-.233,1.322,1.322,0,0,1-.407-.566,4.187,4.187,0,0,1,.434-4.134,2.2,2.2,0,0,1,.772-.693c.967-.476,1.8.18,2.643.587A8.754,8.754,0,0,1,288.14,159.179Z" transform="translate(-137.352 -93.201)" fill="#fff"/>
    <path id="パス_162" data-name="パス 162" d="M290.232,161.314c.275-.053.529-.264.809-.174a.492.492,0,0,1,.233.18,1,1,0,0,1,0,1.057,2.96,2.96,0,0,1-.73.809.455.455,0,0,1-.174.106c-.164.037-.307-.116-.412-.248l-.962-1.3c-.211-.285-1.057-1.142-.307-1.057C289.264,160.743,289.587,161.435,290.232,161.314Z" transform="translate(-140.607 -95.051)" fill="#d8dae1"/>
    <path id="パス_163" data-name="パス 163" d="M285.78,161.181a2.247,2.247,0,0,0-.872-.878,2.363,2.363,0,0,0-1.1-.153,2.1,2.1,0,0,0-1.935.772,1.665,1.665,0,0,0,.159,1.586c.28.476.682.878.967,1.348.407.677.6,1.523,1.221,2.014a2.115,2.115,0,0,0,.888.4c1.057.248,2.474-.259,2.22-1.538A11.214,11.214,0,0,0,285.78,161.181Z" transform="translate(-137.477 -94.796)" fill="#ec9c7d"/>
    <path id="パス_164" data-name="パス 164" d="M305.416,164.475a.9.9,0,0,1,.529,0c.264.116.386.455.656.56a13.931,13.931,0,0,1-2.21,1.3,9.6,9.6,0,0,0-2,1.872c-.687-.375-.645-1.438-1.242-1.94a4.2,4.2,0,0,0,1.2-.529,7.236,7.236,0,0,0,.835-.476A6.344,6.344,0,0,1,305.416,164.475Z" transform="translate(-146.624 -96.821)" fill="#e0e1e1"/>
    <path id="パス_165" data-name="パス 165" d="M296.894,164.926a3.891,3.891,0,0,0-.582.634l-.677.862a.328.328,0,0,0-.106.259.243.243,0,0,0,.285.153,2.447,2.447,0,0,0,.328-.122,2.823,2.823,0,0,1,.761-.042,3.04,3.04,0,0,0,.909-.238.122.122,0,0,0,.106-.137h0a2.114,2.114,0,0,1,.137-.888c.074-.211.217-.455.074-.671C297.856,164.3,297.163,164.7,296.894,164.926Z" transform="translate(-143.975 -96.871)" fill="#e0e1e1"/>
    <path id="パス_166" data-name="パス 166" d="M129.238,187.569l-.941-1.089s-10.045,1.586-11.5,2.162-1.369,3.532-1.369,3.532C119.363,193.263,129.238,187.569,129.238,187.569Z" transform="translate(-59.089 -107.211)" fill="#ec9c7d"/>
    <path id="パス_167" data-name="パス 167" d="M138.07,187.535a.608.608,0,0,0,.2.312.978.978,0,0,0,.344.116,15.968,15.968,0,0,1,1.935,1,4.9,4.9,0,0,0,2.913-.09.782.782,0,0,0,.566-1.39,3.833,3.833,0,0,0-.962-1.232,4,4,0,0,0-3.05-.333C139.053,186.071,137.641,186.118,138.07,187.535Z" transform="translate(-69.723 -106.881)" fill="#ec9c7d"/>
    <path id="パス_168" data-name="パス 168" d="M238.5,138.946a11.853,11.853,0,0,1-.042,3.96,18.109,18.109,0,0,1-.455,1.9,1.792,1.792,0,0,0-.1.529c0,.185.116.333,0,.529-.153.322-.634.185-.946,0a7.692,7.692,0,0,0-4.14-.809c-.338.032-.761.048-.93-.248a.856.856,0,0,1-.063-.486c.09-1.412.217-2.834.37-4.272a24.846,24.846,0,0,1,.909-3.7c.307-1.121,1.285-4.134,2.865-3.458C237.275,133.485,238.3,137.725,238.5,138.946Z" transform="translate(-113.947 -81.908)" fill="#fff"/>
    <rect id="長方形_96" data-name="長方形 96" width="111.201" height="1.924" transform="translate(53.295 83.038)" fill="#e0e1e1"/>
    <rect id="長方形_97" data-name="長方形 97" width="111.201" height="1.924" transform="translate(53.295 83.038)" fill="url(#linear-gradient-7)"/>
    <path id="パス_169" data-name="パス 169" d="M230.564,140.307a29.541,29.541,0,0,1,.893-4.113c.634-2.168,1.708-4.462,3.791-5.318a1.248,1.248,0,0,0,.73-.486c.169-.344-.053-.745-.264-1.057-1.031-1.538-2.014-1.523-3.394-.444a8.508,8.508,0,0,0-2.992,3.574,11.631,11.631,0,0,0-.677,4.885,19.757,19.757,0,0,0,.893,4.991c.111.365.391.809.751.687C230.342,142.115,230.432,141.205,230.564,140.307Z" transform="translate(-112.437 -79.705)" fill="#2f3554"/>
    <path id="パス_170" data-name="パス 170" d="M179.793,131.646a2.046,2.046,0,0,1,.042,1.385c-.122.772-.085,1.586-.243,2.326a2.458,2.458,0,0,1-1.3,1.845,3.241,3.241,0,0,1-1.85,0,.767.767,0,0,1-.555-.285.751.751,0,0,1-.069-.323,6,6,0,0,0-.2-1.5c-.227-.7-.782-1.364-.592-2.072a3.482,3.482,0,0,1,2.21-1.76C178,131.054,179.333,130.906,179.793,131.646Z" transform="translate(-87.165 -81.106)" fill="#fff"/>
    <path id="パス_171" data-name="パス 171" d="M181.456,129.063a.365.365,0,0,0-.058-.148.471.471,0,0,0-.153-.137,4.657,4.657,0,0,0-.682-.359.529.529,0,0,0-.344-.048.349.349,0,0,0-.19.159,1.163,1.163,0,0,0-.053.872l.1.46a1.956,1.956,0,0,1,.5-.048,1.533,1.533,0,0,1,.529.116c.122.053.248.143.381.074a.322.322,0,0,0,.148-.312,2.574,2.574,0,0,0-.169-.629Z" transform="translate(-89.483 -79.818)" fill="#e0e1e1"/>
    <path id="パス_172" data-name="パス 172" d="M176.64,128.8a.619.619,0,0,0-.946,0l-.83.592a1.057,1.057,0,0,0-.481.566.925.925,0,0,0,0,.381,4.076,4.076,0,0,0,.529,1.285c-.074-.116.65-.677.74-.74a8.16,8.16,0,0,1,.936-.529.915.915,0,0,0,.3-1.264.93.93,0,0,0-.248-.291Z" transform="translate(-86.866 -79.923)" fill="#e0e1e1"/>
    <rect id="長方形_98" data-name="長方形 98" width="5.17" height="11.076" rx="2.36" transform="translate(86.11 71.962)" fill="#e0e1e1"/>
    <rect id="長方形_99" data-name="長方形 99" width="5.17" height="11.076" rx="2.36" transform="translate(86.11 71.962)" fill="url(#linear-gradient-8)"/>
    <rect id="長方形_100" data-name="長方形 100" width="1.983" height="38.519" transform="translate(93.744 84.963)" fill="#e0e1e1"/>
    <rect id="長方形_101" data-name="長方形 101" width="1.983" height="38.519" transform="translate(123.709 84.963)" fill="#e0e1e1"/>
    <rect id="長方形_102" data-name="長方形 102" width="1.983" height="38.519" transform="translate(162.482 84.963)" fill="#e0e1e1"/>
    <rect id="長方形_103" data-name="長方形 103" width="1.983" height="38.519" transform="translate(54.03 84.963)" fill="#e0e1e1"/>
    <path id="パス_173" data-name="パス 173" d="M287.307,155.277a1.977,1.977,0,0,1,1.258-.27,1.227,1.227,0,0,1,.983.761,1.3,1.3,0,0,1,0,.872,3.31,3.31,0,0,1-.439.777,3.3,3.3,0,0,0,.708-.529c.185-.18.4-.4.65-.328a.634.634,0,0,1,.27.185c.106.111.217.227.317.344a.772.772,0,0,1,.18.285.883.883,0,0,1-.174.656,1.057,1.057,0,0,1-.529.529,1,1,0,0,1-.83-.285l-1.1-.814a5.879,5.879,0,0,0-.529-.365c-.217-.116-.444-.222-.671-.317s-1.057-.338-1-.682S287.043,155.42,287.307,155.277Z" transform="translate(-139.67 -92.371)" fill="#e0e1e1"/>
    <path id="パス_174" data-name="パス 174" d="M246.4,149.482H251.7l.994-8.438-7.349-.074Z" transform="translate(-115.64 -66.444)" fill="#e0e1e1"/>
    <rect id="長方形_104" data-name="長方形 104" width="8.956" height="1.639" transform="translate(128.795 73.696)" fill="#fff"/>
    <path id="パス_175" data-name="パス 175" d="M254.551,130.37H252.69l-.93,4.774" transform="translate(-118.662 -61.447)" fill="none" stroke="#2f3554" stroke-miterlimit="10" stroke-width="1"/>
    <path id="パス_176" data-name="パス 176" d="M182.994,155.6h17.864l1.412-1.649H181.73Z" transform="translate(-85.655 -72.561)" fill="#fff"/>
    <path id="パス_177" data-name="パス 177" d="M211.107,185.845a3.754,3.754,0,0,0-1.084-1.057,3.352,3.352,0,0,0-1.412-.312,3.643,3.643,0,0,0-1.924.285,4.161,4.161,0,0,0-1.523,1.824.56.56,0,0,0-.1.291c0,.254.3.386.529.449a13.571,13.571,0,0,0,4.176.428c.4,0,1.988.111,2.22-.28S211.377,186.151,211.107,185.845Z" transform="translate(-101.339 -106.254)" fill="#fff"/>
    <path id="パス_178" data-name="パス 178" d="M200.972,185.84a3.6,3.6,0,0,0-1.057-1.057,3.352,3.352,0,0,0-1.412-.312,3.7,3.7,0,0,0-1.946.264,4.161,4.161,0,0,0-1.523,1.824.56.56,0,0,0-.1.291c0,.254.3.386.529.449a13.571,13.571,0,0,0,4.177.428c.4,0,1.988.111,2.22-.28S201.215,186.147,200.972,185.84Z" transform="translate(-96.565 -106.249)" fill="#fff"/>
    <path id="パス_179" data-name="パス 179" d="M206.163,181.341a3.754,3.754,0,0,0-1.084-1.057,3.452,3.452,0,0,0-1.417-.307,3.7,3.7,0,0,0-1.924.285,4.182,4.182,0,0,0-1.517,1.824.64.64,0,0,0-.1.291c0,.254.3.386.529.449a13.745,13.745,0,0,0,4.177.428c.4,0,1.983.106,2.22-.28S206.4,181.647,206.163,181.341Z" transform="translate(-99.006 -104.134)" fill="#fff"/>
    <path id="パス_180" data-name="パス 180" d="M144.081,179.569c.587.079,1.158.428,1.729.291s.957-.745,1.538-.872a1.38,1.38,0,0,1,1.322.571,3.938,3.938,0,0,1,.608,1.38,1.94,1.94,0,0,1,.122,1.026c-.185.756-1.152,1.057-1.507,1.734-.2.375-.2.846-.471,1.163a1.692,1.692,0,0,1-1.158.418,8.908,8.908,0,0,1-2.543,0c-1.232-.227-2.781-1.311-2.379-2.744C141.707,181.245,142.437,179.347,144.081,179.569Z" transform="translate(-71.272 -103.674)" fill="#fff"/>
    <path id="パス_181" data-name="パス 181" d="M149.615,175.8a1.639,1.639,0,0,0-.19-.819c-.333-.529-1.1-.476-1.644-.206a2.9,2.9,0,0,0-1.353,1.412,1.5,1.5,0,0,0-2.115-.254,1.554,1.554,0,0,0-.333.365,2.881,2.881,0,0,0-.338.973.795.795,0,0,0,.793,1.174c.555.079,1.115.143,1.671.185a4.467,4.467,0,0,0,2.643-.37C149.641,177.76,149.668,176.67,149.615,175.8Z" transform="translate(-72.355 -101.599)" fill="#e0e1e1"/>
    <path id="パス_182" data-name="パス 182" d="M288.332,184.331a3.22,3.22,0,0,1,1.528-1.057,4.758,4.758,0,0,1,1.449,0c2.575.233,5.118-.571,7.682-.909a3.574,3.574,0,0,1,2.294.254,5.213,5.213,0,0,1,1.015.915c1.375,1.375,3.278,2.115,4.758,3.346a.777.777,0,0,1,.3.391c.106.4-.381.693-.782.8-3.463.92-7.126-.4-10.69-.053a34.973,34.973,0,0,1-4.488.529,23.538,23.538,0,0,1-2.707-.465c-.471-.085-1.887,0-2.231-.3C285.7,187.09,287.772,184.928,288.332,184.331Z" transform="translate(-139.622 -105.231)" fill="#2f3554"/>
    <path id="パス_183" data-name="パス 183" d="M314.924,191.77a23.091,23.091,0,0,0-.73,4.066,4.815,4.815,0,0,0,.862,3.431,3.351,3.351,0,0,0,1.586.936,2.348,2.348,0,0,1,.772.264,1.269,1.269,0,0,1,.529,1.116,2.818,2.818,0,0,1-.407,1.211,1.058,1.058,0,0,1-.3.365.968.968,0,0,1-.65.122,4.515,4.515,0,0,1-3.024-1.4,6.233,6.233,0,0,1-1.946-4.615,14.143,14.143,0,0,1,1.237-4.293,6.716,6.716,0,0,0,.455-4.383c-.042-.127-.085-.3,0-.386a.349.349,0,0,1,.227-.058C315.621,188.159,315.267,190.322,314.924,191.77Z" transform="translate(-151.559 -107.997)" fill="#2f3554"/>
  </g>
</svg>
